<svg xmlns="http://www.w3.org/2000/svg" viewBox="0 0 230 33.33"><defs><style>.cls-1{fill:#ec111a;}</style></defs><title>Asset 1</title><g id="Layer_2" data-name="Layer 2"><g id="Layer_1-2" data-name="Layer 1"><g id="Layer_1-2-2" data-name="Layer 1-2"><path class="cls-1" d="M171.53,7.89a9,9,0,1,0,9,9A9,9,0,0,0,171.53,7.89Zm0,13a4,4,0,1,1,4-4A4,4,0,0,1,171.53,20.85Z"/><polygon class="cls-1" points="191.99 8.31 189.53 8.31 189.53 3.01 184.15 3.01 184.15 8.31 181.7 8.31 181.7 13.18 184.15 13.18 184.15 25.45 189.53 25.45 189.53 13.18 191.99 13.18 191.99 8.31"/><rect class="cls-1" x="194.45" y="8.32" width="5.37" height="17.14"/><path class="cls-1" d="M197.14,0a3,3,0,1,0,3,3h0A3,3,0,0,0,197.14,0Z"/><path class="cls-1" d="M50.3,12.93a3.22,3.22,0,0,1,3.21,3.2v9.32h5.37v-10c0-4.56-2.63-7.51-6.79-7.51-1.7,0-3.51.75-5,3.14V8.31H41.72V25.45H47.1V16.13A3.2,3.2,0,0,1,50.3,12.93Z"/><path class="cls-1" d="M91,20.83a3.2,3.2,0,0,1-3.2-3.2V8.31H82.37V18.37c0,4.56,2.63,7.51,6.79,7.51,1.71,0,3.51-.75,5-3.14v2.71h5.37V8.31H94.16v9.32A3.21,3.21,0,0,1,91,20.83Z"/><path class="cls-1" d="M144,20.84a7.93,7.93,0,0,0,.56-3.16,6.41,6.41,0,0,0-1.53-4.35,12.8,12.8,0,0,0-5.83-3.11,9.06,9.06,0,0,1-1.53-.57,3.66,3.66,0,0,1-1.14-.85,1.91,1.91,0,0,1-.48-1.39,2,2,0,0,1,1.12-1.77,5.25,5.25,0,0,1,4.25,0,9.39,9.39,0,0,1,1.73.81l2.29-4.55A13.1,13.1,0,0,0,140.18.46,14.41,14.41,0,0,0,136.54,0a10.18,10.18,0,0,0-3.42.56,7.83,7.83,0,0,0-2.61,1.71,8,8,0,0,0-1.75,2.6A8.37,8.37,0,0,0,128.18,8a6.68,6.68,0,0,0,2,4.54,11.18,11.18,0,0,0,4,2.27c.71.27,1.5.51,2,.7a7.82,7.82,0,0,1,1.47.75,2.3,2.3,0,0,1,.79.88,2,2,0,0,1,.17,1.09,2.25,2.25,0,0,1-.76,1.48,3.66,3.66,0,0,1-2.48.68,7.38,7.38,0,0,1-3-.72A21.69,21.69,0,0,1,130,18.42l-2.7,4.68A12.2,12.2,0,0,0,135,25.87a12.71,12.71,0,0,0,4-.64,9.43,9.43,0,0,0,3.07-1.73A7.84,7.84,0,0,0,144,20.84Z"/><path class="cls-1" d="M158.75,19.37a4,4,0,1,1-.61-5.58,3.52,3.52,0,0,1,.61.61l3.56-3.57a9,9,0,0,0-6.65-2.94c-5,0-9.28,3.52-9.28,9s4.32,9,9.28,9a9,9,0,0,0,6.65-2.95Z"/><path class="cls-1" d="M39.15,25.45V8.31H33.91v1.83l-.49-.44A6.59,6.59,0,0,0,28.9,7.91c-4.62,0-8.53,4.12-8.53,9s3.91,9,8.53,9a6.56,6.56,0,0,0,4.52-1.8l.49-.43v1.8Zm-9.41-4.52a4.05,4.05,0,1,1,4.05-4.05A4,4,0,0,1,29.74,20.93Z"/><path class="cls-1" d="M74.59,8.31v1.83l-.47-.46a6.52,6.52,0,0,0-4.51-1.79c-4.63,0-8.53,4.12-8.53,9s3.9,9,8.53,9a6.53,6.53,0,0,0,4.51-1.8l.49-.43v9.68h5.22v-25Zm-.12,8.57a4,4,0,1,1-4-4,4,4,0,0,1,4,4Z"/><path class="cls-1" d="M119.78,16.88a9,9,0,0,0-18,0,8.79,8.79,0,0,0,9,9c3,0,5.61-.62,7.88-3l-3.46-3a6.42,6.42,0,0,1-4.42,1.62,4,4,0,0,1-3.87-2.87h12.7A11.13,11.13,0,0,0,119.78,16.88ZM107,15a4,4,0,0,1,7.69,0Z"/><path class="cls-1" d="M18.58,18.13c0,4.43-3.61,7.32-8.07,7.32H0V.44H9.79c4.36,0,7.9,2.83,7.9,7.14a6.28,6.28,0,0,1-2.18,4.9A6.44,6.44,0,0,1,18.58,18.13ZM5.38,5.8v4.43H9.79a2.11,2.11,0,0,0,2.18-2V8A2.09,2.09,0,0,0,10,5.8H5.38Zm7.48,11.9a2.25,2.25,0,0,0-2.12-2.39H5.38v4.79h5.13a2.27,2.27,0,0,0,2.36-2.16A1.85,1.85,0,0,0,12.86,17.7Z"/><path class="cls-1" d="M220.87,25.45V8.31h-5.25v1.83l-.48-.44a6.57,6.57,0,0,0-4.52-1.81c-4.62,0-8.53,4.12-8.53,9s3.91,9,8.53,9a6.56,6.56,0,0,0,4.52-1.8l.48-.43v1.8Zm-9.41-4.52a4.05,4.05,0,1,1,4-4.05A4,4,0,0,1,211.46,20.93Z"/><polygon class="cls-1" points="226.26 22.18 225.69 22.18 225.69 22.18 225.69 22.19 224.6 24.6 223.51 22.19 223.51 22.18 223.5 22.18 222.94 22.18 222.92 22.18 222.92 25.45 223.51 25.45 223.51 23.46 224.4 25.45 224.8 25.45 225.69 23.46 225.69 25.45 226.28 25.45 226.28 22.18 226.26 22.18"/><path class="cls-1" d="M230,23.81a1.57,1.57,0,0,1-1.52,1.62h-1.41V22.18h1.37A1.57,1.57,0,0,1,230,23.77Zm-.56,0a1,1,0,0,0-.93-1.08h-.84V24.9h.75a1,1,0,0,0,1-1Z"/></g></g></g></svg>