<svg xmlns="http://www.w3.org/2000/svg" viewBox="0 0 363.27 92.52"><defs><style>.cls-1{fill:#ec121f;}</style></defs><title>Asset 2</title><g id="Layer_2" data-name="Layer 2"><g id="Layer_1-2" data-name="Layer 1"><path class="cls-1" d="M158.06,28.17a32.18,32.18,0,1,0,32.17,32.17A32.2,32.2,0,0,0,158.06,28.17Zm0,46.36a14.19,14.19,0,1,1,14.19-14.19A14.2,14.2,0,0,1,158.06,74.53Z"/><polygon class="cls-1" points="231.22 29.7 222.44 29.7 222.44 10.71 203.21 10.71 203.21 29.7 194.42 29.7 194.42 47.11 203.21 47.11 203.21 90.99 222.44 90.99 222.44 47.11 231.22 47.11 231.22 29.7"/><rect class="cls-1" x="240.04" y="29.7" width="19.23" height="61.28"/><path class="cls-1" d="M249.65,0a10.72,10.72,0,1,0,10.72,10.71A10.73,10.73,0,0,0,249.65,0Z"/><path class="cls-1" d="M334.44,91V29.7H315.69v6.44L314,34.59a23.42,23.42,0,0,0-16.14-6.42c-16.55,0-30.52,14.73-30.52,32.17s14,32.18,30.52,32.18A23.38,23.38,0,0,0,314,86.09l1.74-1.55V91ZM300.79,74.82a14.48,14.48,0,1,1,14.48-14.48A14.49,14.49,0,0,1,300.79,74.82Z"/><path class="cls-1" d="M59.68,74.49a27.81,27.81,0,0,0,2-11.29c0-6.18-1.94-11.71-5.46-15.57-4.11-4.49-11.13-8.23-20.86-11.1a35.52,35.52,0,0,1-5.47-2.05,13.32,13.32,0,0,1-4.07-3,6.86,6.86,0,0,1-1.75-5c0-2.85,1.52-4.77,4-6.33,3.11-2,9.09-2.16,15.2.11a37,37,0,0,1,6.21,2.94L57.63,6.93A46.75,46.75,0,0,0,45.91,1.65,51.39,51.39,0,0,0,32.85,0,35,35,0,0,0,20.64,2,27.55,27.55,0,0,0,11.31,8.1a28.88,28.88,0,0,0-6.22,9.3A30,30,0,0,0,3,28.73,23.84,23.84,0,0,0,10.28,45c5.6,5.25,12,7.12,14.51,8.1s5.37,1.82,7.16,2.54a26.07,26.07,0,0,1,5.27,2.68A8.36,8.36,0,0,1,40,61.41a7,7,0,0,1,.6,3.91,8,8,0,0,1-2.73,5.28C36.24,72.15,33.26,73,29.05,73a26.73,26.73,0,0,1-10.73-2.58,76.62,76.62,0,0,1-8.71-4.62L0,82.59c6.71,6,17.58,9.93,27.27,9.93A46.28,46.28,0,0,0,41.75,90.2a33.09,33.09,0,0,0,11-6.14A28.22,28.22,0,0,0,59.68,74.49Z"/><path class="cls-1" d="M352.56,69.56a10.72,10.72,0,1,0,10.71,10.71A10.71,10.71,0,0,0,352.56,69.56Zm0,19.27a8.56,8.56,0,1,1,8.55-8.56A8.56,8.56,0,0,1,352.56,88.83Z"/><path class="cls-1" d="M352.54,82.06h-1.72v4.06h-2.11V74.43h4.48a3.88,3.88,0,0,1,3.9,3.87,3.81,3.81,0,0,1-2.26,3.41l2.46,4.41h-2.52Zm-1.72-2h2.46a1.8,1.8,0,0,0,0-3.58h-2.46Z"/><path class="cls-1" d="M112.35,69.23a14.19,14.19,0,1,1,0-17.77l12.74-12.75A32.09,32.09,0,0,0,101.3,28.17c-17.74,0-33.18,12.63-33.18,32.17S83.56,92.52,101.3,92.52A32.09,32.09,0,0,0,125.09,82Z"/></g></g></svg>